<?xml version="1.0" encoding="UTF-8"?>
<svg id="Layer_2" data-name="Layer 2" xmlns="http://www.w3.org/2000/svg" viewBox="0 0 1621.02 648.88">
  <defs>
    <style>
      .cls-1 {
        fill: #f18604;
      }

      .cls-1, .cls-2, .cls-3, .cls-4, .cls-5, .cls-6, .cls-7, .cls-8 {
        stroke-width: 0px;
      }

      .cls-2 {
        fill: #f18605;
      }

      .cls-3 {
        fill: #f18401;
      }

      .cls-4 {
        fill: #f18504;
      }

      .cls-5 {
        fill: #f18503;
      }

      .cls-6 {
        fill: #f2890b;
      }

      .cls-7 {
        fill: #f28a0d;
      }

      .cls-8 {
        fill: #f28c11;
      }
    </style>
  </defs>
  <g id="Layer_1-2" data-name="Layer 1">
    <g>
      <path class="cls-5" d="m214.63,181.59c9.24-3.05,17.91-5.85,27.66-6.09.2,4.87.34,9.32.57,13.76.61,11.67,1.33,23.33,1.88,34.99.38,8.08.46,16.18.86,24.26.55,11.21,1.3,22.4,1.88,33.6.27,5.16.27,10.33.52,15.49.69,13.9,1.46,27.8,2.16,41.7.2,4.04.22,8.08.38,12.12.41,10.09.91,20.18,1.27,30.27.32,9.34-3.45,17.01-9.97,23.46-1.6,1.58-3.35,3-5.07,4.45-10.68,9.02-17.66,20.51-20.87,33.91-6.56,27.37-4.32,53.98,8.86,79.23,3.67,7.02,8.34,13.37,14.36,18.58,2.7,2.33,5.71,4.38,8.82,6.14,2.92,1.66,6.16,2.72,9.68,2.36,1.11-.11,2.26-.12,3.37,0,8.05.84,14.4-2.79,20.08-7.86,5.76-5.14,10.32-11.29,14.06-18.01,10.32-18.53,14.79-38.36,13.48-59.58-.66-10.62-2.5-20.9-6.44-30.8-3.74-9.4-9.43-17.3-17.45-23.53-6.72-5.22-12.03-11.54-14.14-19.99-.81-3.24-1.5-6.63-1.42-9.94.26-10.32.97-20.62,1.42-30.94.69-15.7,1.24-31.41,2-47.11.65-13.45,1.57-26.89,2.24-40.33.3-6.06-.09-12.17.47-18.2,1.11-11.88.6-23.82,1.46-35.67.63-8.74.87-17.47,1.24-26.21.08-1.96.61-3.89.98-6.06,5.31-.4,10.1.96,14.8,2.2,40.58,10.77,70.95,34.57,91.24,71.38,8.15,14.78,12.4,30.72,15.32,47.13.31,1.75.24,3.59.25,5.38.03,5.4-.16,10.81.05,16.2.79,19.77-4.44,38.2-12.39,56.01-5.12,11.48-10.47,22.87-15.59,34.35-7.05,15.79-14.04,31.62-20.98,47.46-10.99,25.1-21.86,50.26-32.88,75.35-9.76,22.21-19.68,44.35-29.48,66.54-6.17,13.97-12.25,27.98-18.37,41.97-.45,1.03-.84,2.09-1.38,3.08-2.93,5.42-7.78,7.48-13.65,5.46-2.87-.99-4.57-3.41-5.8-6.2-3.07-6.99-6.34-13.9-9.41-20.89-5.05-11.51-9.97-23.08-15-34.6-6.84-15.64-13.72-31.27-20.6-46.89-6.51-14.8-13.01-29.6-19.56-44.38-2.4-5.41-3.46-11.06-3.51-16.97-.1-10.34-.24-20.68-.52-31.01-.47-17.61,7.5-30.53,21.89-39.98,2.63-1.73,5.34-3.35,7.82-5.28,9.9-7.67,15.55-17.77,17.14-30.22.74-5.84.79-11.61.13-17.46-.61-5.34-.66-10.75-1.07-16.12-.37-4.9-.93-9.79-1.33-14.69-.48-5.8-.87-11.61-1.33-17.41-.72-9.16-1.47-18.32-2.2-27.48-.71-8.94-1.38-17.88-2.14-26.82-.51-6.02-1.19-12.03-1.68-18.05-.25-3.13-.12-6.3-.4-9.43-1.05-11.59-2.22-23.17-3.3-34.75-.22-2.41-.25-4.83-.41-7.9Z"/>
      <path class="cls-4" d="m88.4,303.48c-6.01.91-35.69.96-41.8.14-1.18-4.79-.76-9.76-.4-14.6,2.09-28.3,8.94-55.4,21.79-80.78,26.95-53.2,68.45-89.98,124.75-110.03,14.06-5.01,28.5-8.27,43.21-10.1,15.85-1.97,31.78-2.16,47.75-.51,11.88,1.23,23.55,3.21,35.08,6.22,14.64,3.82,28.65,9.25,42.08,16.17,42.55,21.94,74.65,54.32,96.33,96.96,9.11,17.93,15.39,36.85,19.08,56.66,2.19,11.73,3.59,23.51,3.75,35.43.02,1.33,0,2.65,0,4.18-1.06.37-1.86.89-2.66.89-12.6.04-25.2.03-37.81,0-.43,0-.86-.25-1.54-.46-1.26-2.55-1.11-5.49-1.21-8.35-.71-21.12-5.24-41.41-13.68-60.74-16.32-37.4-42.52-65.86-78.51-85.15-18.2-9.75-37.66-15.7-58.11-18.59-13.65-1.92-27.37-2.28-40.99-.79-30.95,3.37-59.45,13.57-84.75,32.05-35.23,25.73-57.68,60.01-67.85,102.3-2.73,11.35-4.3,22.97-4.32,34.72,0,1.33-.12,2.67-.2,4.37Z"/>
      <path class="cls-4" d="m526.46,152.52c-12.23,7.02-24.08,13.82-35.72,20.5-2.73-.6-3.15-2.87-4.15-4.52-11.77-19.32-25.77-36.84-42.07-52.54-27.82-26.79-60-46.46-96.51-59.01-20.04-6.89-40.65-11.12-61.78-12.98-19.13-1.68-38.26-1.63-57.22,1.02-67.68,9.44-123.74,40.25-167.79,92.59-8.84,10.5-16.83,21.67-23.58,33.67-.32.56-.85,1-1.6,1.87-12.02-6.97-24.03-13.93-36.04-20.9C44.02,73.05,133.35,7.79,242.21.68c122.24-7.99,227.97,55.51,284.25,151.84Z"/>
      <path class="cls-4" d="m1085.67,433.4c.44,6.27,1.22,12.55,1.27,18.82.16,20.46.07,40.93.05,61.39,0,1.74-.28,3.47-.42,5.11-6.47.98-37.57.89-42.94-.13-.12-1.42-.36-2.94-.36-4.46-.02-42.73-.02-85.45,0-128.18,0-1.57,0-3.16.21-4.71.99-7.27,5.58-11.75,12.89-12.48,2.45-.24,4.94-.15,7.42-.15,5.17,0,10.35.04,15.52.03,4.83,0,8.72,1.88,11.59,5.78,1.33,1.81,2.65,3.63,3.86,5.52,10.28,16.11,20.49,32.26,30.8,48.34,5,7.81,8.56,16.29,12.13,24.79.47,1.13,1.25,2.13,2.53,4.25-.56-8.44-1.22-15.56-1.46-22.7-.25-7.41-.08-14.84-.13-22.26-.04-7.2-.19-14.39-.17-21.59.02-7.14-.54-14.3.17-21.35,5.07-1.01,35.15-1.21,42.71-.34,1.46,2.19.76,4.74.76,7.13.06,27.88.04,55.77.04,83.65,0,13.49.06,26.99-.05,40.48-.03,3.11-.35,6.3-1.08,9.32-1.16,4.77-4.51,7.62-9.22,8.89-.22.06-.44.09-.66.12-9.41,1.14-18.83,1.06-28.24.14-3.3-.32-5.93-2.05-7.97-4.6-1.4-1.75-2.73-3.57-3.93-5.47-9.38-14.81-18.54-29.77-28.14-44.44-6.33-9.67-11.47-19.81-15-30.8.22-2.02-.36-3.7-2.07-5.12-1.2,1.8-.84,3.4-.08,5.01Z"/>
      <path class="cls-4" d="m1204.2,368.82c4.41-.37,7.97-.83,11.55-.95,17.98-.6,35.95-1.35,53.93-1.58,10.56-.13,21.09.92,31.4,3.56,16.89,4.32,27.88,14.7,33.03,31.39,3,9.75,4.28,19.77,4.75,29.88.59,12.8.56,25.62-1.14,38.38-.95,7.15-2.38,14.16-4.94,20.94-5.13,13.56-14.73,22.32-28.43,26.69-7.53,2.41-15.33,3.7-23.2,3.96-18.88.64-37.77.55-56.64-.75-4.93-.34-9.89-.38-14.83-.62-1.53-.07-3.06-.32-4.74-.51-1.16-2.53-.71-5.03-.71-7.42-.04-29.91-.02-59.82-.02-89.73v-45.88c0-2.22,0-4.45,0-7.35Zm48.01,32.06c-.31,1.64-.54,2.29-.54,2.93-.02,26.54-.03,53.07,0,79.61,0,1.04.4,2.09.58,2.98,5.88,1.02,16.78,1.15,21.14.32.88-.17,1.77-.34,2.64-.57,3.91-1.06,6.98-3.32,8.54-7.05,1.29-3.08,2.47-6.34,2.91-9.63,2.27-17.02,2.21-34.07.01-51.1-.34-2.64-1.2-5.26-2.1-7.79-2-5.64-6.19-8.81-12.04-9.4-6.93-.7-13.89-.25-21.14-.3Z"/>
      <path class="cls-5" d="m1120.49,195.87c9.58-.47,18.33-1.14,27.08-1.26,15.52-.22,31.05-.14,46.58-.11,7.67.01,15.26.99,22.72,2.74,2.61.61,5.19,1.48,7.67,2.51,8.23,3.42,13.58,9.51,15.75,18.14,2.44,9.74,2.53,19.57.4,29.41-2.48,11.42-9.67,17.9-20.99,20.04-1.21.23-2.43.38-3.79.58.93,1.78,2.37,1.76,3.66,1.96,14.91,2.23,23.68,10.1,26.59,27,1.43,8.29,1.48,16.53-.14,24.8-2.23,11.43-8.94,18.93-19.85,22.64-8.37,2.85-17.08,4.03-25.88,4.07-16.43.08-32.85.09-49.28-.16-9.88-.15-19.75-.85-29.94-1.32-.3-1.42-.67-2.66-.8-3.92-.13-1.34-.04-2.7-.04-4.05,0-45,0-90,0-135,0-2.43.14-4.86.24-8.08Zm47.09,86.65c-1.96,3.79-.8,7.64-1.01,11.34-.2,3.57-.16,7.17-.01,10.74.15,3.73-.7,7.55.85,11.64,3.36,0,6.7.02,10.04,0,3.8-.03,7.62.06,11.41-.21,7.02-.51,9.79-2.96,10.68-9.68.44-3.31.39-6.7.28-10.05-.33-9.95-3.37-13.18-13.4-13.72-6.24-.33-12.51-.06-18.85-.06Zm-1.03-28.4c5.97,1.02,18.03,1.09,22.21.26.44-.09.88-.2,1.32-.28,3.22-.59,5.18-2.49,5.95-5.66,1.25-5.11,1.27-10.22.13-15.37-.72-3.25-2.78-5.12-5.84-5.83-1.95-.45-4.01-.53-6.03-.56-4.5-.08-9-.06-13.5,0-1.26.02-2.53.31-4.11.53-.3,9.14-.13,17.86-.13,26.91Z"/>
      <path class="cls-2" d="m1621.02,519.12h-49.12c-.55-1.58-1.29-3.18-1.67-4.87-2.82-12.72-5.56-25.46-8.36-38.19-.43-1.97-.95-3.94-1.64-5.83-1.18-3.25-3.62-5.17-7.02-5.52-6.01-.61-12.04-.41-18.5-.22-.14,2.17-.35,3.9-.35,5.62-.03,13.94,0,27.89-.03,41.83,0,2.19-.18,4.39-.28,6.92-7.96,1.06-15.56.43-23.13.49-7.59.06-15.19.29-22.7-.2-.29-1.19-.59-1.82-.59-2.46-.02-48.58-.01-97.16.01-145.73,0-.64.31-1.28.57-2.28,3.03-.38,6.12-.93,9.22-1.13,19.09-1.25,38.2-1.7,57.32-1.24,8.51.2,17,1.47,25.48,2.41,2.44.27,4.86.94,7.22,1.64,16.7,4.89,25.45,15.54,27.24,32.94.79,7.66.73,15.24-1.29,22.75-2.97,11.02-10.1,17.74-20.95,20.72-2.33.64-4.87.58-7.1,2.4,1.28.33,2.36.59,3.43.89,10.98,3.03,17.65,10.09,20.27,21.22,2.42,10.28,5.16,20.48,7.74,30.71,1.36,5.41,2.68,10.82,4.24,17.13Zm-86.03-119.14c-1.01,7.2-.88,25.22.13,30.22.56.17,1.18.51,1.8.52,5.6.04,11.2.09,16.8-.02,1.77-.03,3.53-.48,5.29-.79,4.89-.84,7.41-4.07,7.98-8.7.41-3.31.46-6.72.22-10.05-.49-6.86-2.92-9.37-9.77-10.76-.66-.13-1.32-.32-1.98-.35-6.69-.3-13.37-.18-20.47-.07Z"/>
      <path class="cls-4" d="m1110.63,346.41c-8.48.8-42.98.63-48.21-.2-2.45-10.31-4.93-20.75-7.38-31.03-5.51-.87-32.88-1.02-41.1-.26-2.26,4.74-2.61,10.19-4.02,15.32-1.42,5.19-2.45,10.48-3.71,15.99-1.38.23-2.65.63-3.93.63-13.5.04-27,.03-40.5,0-1.08,0-2.15-.24-3.71-.42.56-2.45.96-4.61,1.56-6.72,10.13-35.9,20.29-71.79,30.44-107.68,2.26-8,4.51-16,6.8-23.99,1.85-6.45,6.23-10.24,12.67-11.72,1.3-.3,2.68-.32,4.02-.32,13.72-.02,27.45-.09,41.17.01,9.26.07,14.61,4.09,17.2,13.11,5.91,20.51,11.63,41.08,17.45,61.61,6.55,23.13,13.13,46.26,19.67,69.39.54,1.92.97,3.88,1.56,6.28Zm-73.36-114.43h-5.23c-3.51,16.41-6.91,32.33-10.32,48.26,6.72,1.06,20.37.93,25.14-.21-2.92-15.84-8.02-31.24-9.59-48.05Z"/>
      <path class="cls-1" d="m1498.07,344.7c-1.9.31-3.63.75-5.38.86-9.65.59-19.29,1.29-28.95,1.59-12.81.4-25.63.53-38.44.65-3.81.03-7.65-.19-11.43-.64-16.05-1.9-27.91-14.54-28.9-30.65-.11-1.79-.11-3.6-.11-5.39,0-26.53-.05-53.07.05-79.6.01-3.79.23-7.69,1.15-11.34,3.42-13.63,12.63-21.33,26.08-24.21,3.05-.65,6.25-.88,9.38-.85,19.34.24,38.67.53,58,.99,5.38.13,10.75.89,16.11,1.44.85.09,1.65.56,2.39.83.61,5.93-.48,25.07-1.8,32.35-1.73,1.49-3.84.98-5.81.98-15.07.04-30.13.01-45.2.03-2.02,0-4.06-.05-6.06.22-3.76.51-6.37,2.89-6.64,6.53-.36,4.87-.36,9.79.07,15.07,2.14.13,3.88.31,5.61.32,14.39.02,28.78,0,43.18.02,2.2,0,4.41.14,6.51.22,1.14,4.93,1.39,21.69.52,30.46-1.74,1.41-3.83.93-5.8.93-14.17.04-28.33.01-42.5.03-2.23,0-4.45.11-6.98.18-.3,1.51-.73,2.76-.76,4.01-.09,4.27-.14,8.55,0,12.81.17,5.55,2.7,8.12,8.27,8.57,1.79.15,3.6.08,5.39.08,14.39,0,28.78,0,43.18.02,2.2,0,4.41.18,6.83.28,1.39,3.74.81,7.37,1.13,10.87.33,3.58.71,7.16.85,10.75.15,3.57.03,7.16.03,11.59Z"/>
      <path class="cls-5" d="m1459.97,426.52c.38,10.73.22,20.54.15,29.87-1.81,2.16-3.74,1.51-5.44,1.52-14.39.05-28.79.03-43.18.03-2.22,0-4.44,0-7.03,0-.27,1.59-.64,2.84-.66,4.1-.07,4.5-.13,9,0,13.49.16,5.12,2.79,7.72,7.96,8.09,1.57.11,3.15.04,4.72.04,14.62,0,29.24,0,43.86,0,2.23,0,4.46,0,6.56,0,.46,1.02.94,1.61.98,2.23.7,9.18,1.36,18.37,1.99,27.56.07,1.08-.12,2.18-.22,3.69-3.03.43-5.87.97-8.73,1.22-23.56,2-47.18,1.8-70.79,1.68-3.55-.02-7.21-.6-10.61-1.61-14.2-4.19-22.47-16.43-23.09-28.52-.07-1.35-.19-2.69-.19-4.04-.01-27.89-.04-55.77.03-83.66,0-3.13.18-6.35.94-9.36,3.23-12.7,11.55-20.57,24.05-23.91,3.64-.98,7.56-1.39,11.34-1.33,20.46.28,40.92.71,61.37,1.28,5.11.14,10.2,1,15.47,1.54,1.17,6.02-.39,11.53-.64,17.06-.25,5.34.22,10.77-1.52,16.44-2.31.03-4.53.08-6.75.09-14.84,0-29.69-.02-44.53.03-2.23,0-4.52.09-6.66.62-3.39.84-5.42,3.19-5.5,6.78-.1,4.7-.03,9.41-.03,14.57,2.04.19,3.76.48,5.48.49,14.39.04,28.79.02,43.18.02,2.23,0,4.46,0,7.49,0Z"/>
      <path class="cls-5" d="m959,370.63c-.75,11.39-1.44,21.9-2.16,32.86-1.88.19-3.6.5-5.32.5-14.85.04-29.7,0-44.56.06-2.22,0-4.51.19-6.63.77-3.37.92-5.35,3.35-5.42,6.89-.12,5.59-.03,11.18-.03,17.18,2.12.21,3.84.51,5.55.52,13.5.04,27,.02,40.51.02,2.24,0,4.48,0,6.91,0,.35,1.03.85,1.83.86,2.64.06,8.77.04,17.55.02,26.32,0,.64-.28,1.29-.52,2.34-5.75.7-11.59.23-17.4.32-5.85.08-11.7,0-17.55.02-5.82.02-11.64.07-17.89.12-.2,2.15-.49,3.87-.49,5.6-.04,15.08-.01,30.15-.03,45.23,0,2.2-.13,4.4-.19,6.5-5.87,1.13-41.46,1.11-47,0-.1-1.68-.28-3.44-.28-5.2-.02-36.68-.04-73.35.03-110.03,0-3.35.2-6.79.97-10.02,3.21-13.35,11.97-21.29,25.09-24.46,3.68-.89,7.58-1.26,11.37-1.2,18.89.29,37.79.7,56.67,1.29,5.57.17,11.11,1.08,17.5,1.74Z"/>
      <path class="cls-2" d="m928.13,346.1c-5.85,1.03-41.06,1.06-46.96.09-.93-6.17-.33-12.46-.43-18.72-.11-6.3-.02-12.6-.02-18.9v-75.12c-1.76-2.06-3.65-1.69-5.39-1.7-10.13-.03-20.26,0-30.38-.04-1.96,0-3.92-.26-5.74-.39-1.07-6.04-1.05-29.16-.03-34.73.55-.18,1.16-.55,1.77-.55,42.75-.03,85.5-.02,128.48-.02.35.95.9,1.74.9,2.54.05,10.35.03,20.7,0,31.05,0,.42-.28.84-.51,1.5-4.28,1.24-8.78.46-13.22.59-4.72.14-9.45-.02-14.18.05-4.44.06-8.9-.31-13.76.37-.44,5.01-.19,9.7-.23,14.37-.04,4.73,0,9.45,0,14.18v57.39c0,4.73.04,9.45-.01,14.18-.06,4.66.28,9.35-.25,13.88Z"/>
      <path class="cls-2" d="m1264.04,196.43c1.49-.21,2.36-.43,3.23-.43,14.17.03,28.33.08,42.5.15.38,0,.77.37,1.66.83.07,2.12.23,4.54.23,6.97.02,30.59.01,61.18.01,91.77,0,1.8.08,3.6,0,5.4-.16,3.67,1.92,6.79,6.9,7.8,1.74.35,3.58.24,5.38.24,13.27.02,26.54.01,39.82.01,2.22,0,4.44,0,6.5,0,1.58,4.89,2.93,22.49,2.76,34.72-1.71,1.46-4,1.47-6.18,1.61-9.2.6-18.39,1.29-27.6,1.61-11.69.41-23.39.58-35.08.68-4.03.03-8.11-.17-12.1-.75-17.07-2.45-26.06-15.36-27.47-26.67-.39-3.11-.78-6.26-.79-9.39-.06-36.21-.04-72.42-.03-108.64,0-1.77.15-3.54.25-5.92Z"/>
      <path class="cls-1" d="m1020.1,368.94v149.56c-.81.31-1.43.76-2.04.76-14.16.05-28.31.06-42.47.03-.62,0-1.24-.41-2.03-.7-.13-.86-.38-1.72-.38-2.58-.02-48.75-.02-97.5-.02-146.6,1.47-.3,2.72-.78,3.96-.78,13.04-.05,26.07-.04,39.11-.02,1.09,0,2.17.17,3.87.32Z"/>
      <path class="cls-6" d="m194.19,347.3c-.16-2.73-.29-5.61-.49-8.48-.44-6.49-.74-12.99-1.42-19.45-.9-8.49-.54-17.09-1.52-25.51-1.09-9.35-.99-18.77-2.33-28.1-.82-5.75-.71-11.62-1.09-17.43-.4-6.04-.89-12.06-1.34-18.1-.08-1.12-.23-2.24-.23-3.36,0-7.18-1.2-14.26-1.78-21.39-.24-2.87-.04-5.79-.04-8.33,6.71-5.19,13.06-8.6,19.28-10.4,0,2.43,0,4.81,0,7.2,0,6.07.1,12.15-.04,18.22-.08,3.57-.59,7.14-.85,10.71-.13,1.79-.19,3.59-.21,5.39-.18,19.78-.34,39.57-.51,59.35-1.99,12.72-.6,25.55-1.29,38.32-.32,6.05-.01,12.14-.11,18.21-.07,4.04-.82,4.42-6.02,3.15Z"/>
      <path class="cls-3" d="m679.56,332.9c0-99.02,0-198.05,0-297.07,0-2.24.02-4.5.29-6.72.07-.61,1.06-1.11,1.64-1.67.5.63,1.35,1.23,1.42,1.91.22,2.23.2,4.49.2,6.73,0,59.19,0,118.38,0,177.57,0,139.08,0,278.16,0,417.25,0,2.47-.02,4.95-.26,7.4-.06.59-1.06,1.09-1.63,1.63-.5-.63-1.37-1.21-1.44-1.88-.23-2.23-.21-4.49-.21-6.73,0-47.04,0-94.07,0-141.11,0-52.44,0-104.87,0-157.31Z"/>
      <path class="cls-7" d="m165.2,347.71c-1.56-.07-2.81-.12-4.45-.2-.29-2.61-.54-5.01-.83-7.41-.27-2.21-.8-4.41-.85-6.62-.24-11.22-.24-22.45-.55-33.67-.25-8.96-.89-17.91-1.2-26.87-.16-4.7.21-9.43,0-14.13-.21-4.44-.94-8.85-1.31-13.29-.48-5.8.23-11.65-.94-17.44-.43-2.14-.07-4.45-.07-6.44,4.75-5.51,9.6-10.34,15.75-14.98.49,3.81.31,6.86.12,9.89-.19,3.12-.63,6.23-.72,9.34-.29,11.2.11,22.46-.86,33.59-1.19,13.66-.6,27.34-1.56,40.96-.97,13.65-1.2,27.32-1.78,40.97-.08,1.97-.46,3.93-.75,6.27Z"/>
      <path class="cls-8" d="m131.79,347.12c-2.91,1.03-5.03,1.22-7.46-.26-.13-1.16-.4-2.46-.4-3.75-.03-20.46-.03-40.92,0-61.38,0-1.55.08-3.18.53-4.64,2.99-9.67,6.58-19.11,11.4-28.03.49-.9,1.11-1.73,2.08-3.2.89,2.2.39,3.7.46,5.12.07,1.35.1,2.71-.01,4.04-.57,6.47-1.25,12.92-1.8,19.39-.37,4.46-.59,8.94-.86,13.41-.45,7.37-.85,14.75-1.35,22.12-.83,12.28-1.71,24.55-2.6,37.18Z"/>
      <path class="cls-4" d="m1085.67,433.4c-.76-1.61-1.12-3.21.08-5.01,1.72,1.42,2.3,3.1,2.07,5.12l-2.16-.12Z"/>
    </g>
  </g>
</svg>